<?xml version="1.0" encoding="UTF-8" standalone="no"?>
<!-- Created with Inkscape (http://www.inkscape.org/) -->

<svg
   xmlns:dc="http://purl.org/dc/elements/1.1/"
   xmlns:cc="http://creativecommons.org/ns#"
   xmlns:rdf="http://www.w3.org/1999/02/22-rdf-syntax-ns#"
   xmlns:svg="http://www.w3.org/2000/svg"
   xmlns="http://www.w3.org/2000/svg"
   xmlns:sodipodi="http://sodipodi.sourceforge.net/DTD/sodipodi-0.dtd"
   xmlns:inkscape="http://www.inkscape.org/namespaces/inkscape"
   width="107.02759"
   height="177.17885"
   id="svg6713"
   version="1.1"
   inkscape:version="0.48.0 r9654"
   sodipodi:docname="Neues Dokument 16">
  <defs
     id="defs6715" />
  <sodipodi:namedview
     id="base"
     pagecolor="#ffffff"
     bordercolor="#666666"
     borderopacity="1.0"
     inkscape:pageopacity="0.0"
     inkscape:pageshadow="2"
     inkscape:zoom="3.959798"
     inkscape:cx="58.416433"
     inkscape:cy="85.802096"
     inkscape:document-units="px"
     inkscape:current-layer="layer1"
     showgrid="false"
     fit-margin-top="10"
     fit-margin-left="10"
     fit-margin-right="10"
     fit-margin-bottom="10"
     inkscape:window-width="1280"
     inkscape:window-height="995"
     inkscape:window-x="1280"
     inkscape:window-y="0"
     inkscape:window-maximized="1" />
  <metadata
     id="metadata6718">
    <rdf:RDF>
      <cc:Work
         rdf:about="">
        <dc:format>image/svg+xml</dc:format>
        <dc:type
           rdf:resource="http://purl.org/dc/dcmitype/StillImage" />
        <dc:title></dc:title>
      </cc:Work>
    </rdf:RDF>
  </metadata>
  <g
     inkscape:label="Ebene 1"
     inkscape:groupmode="layer"
     id="layer1"
     transform="translate(-157.91478,-303.77276)">
    <g
       id="g6291"
       transform="translate(31.48622,-239.30372)"
       inkscape:export-filename="/pub/02_Matti/Hausaufgaben/PhysGrundpraktikum/GP1/Kapitel47_18-04-2011_Radioaktivität/images/Aufbau_47_1.png"
       inkscape:export-xdpi="400"
       inkscape:export-ydpi="400">
      <g
         transform="translate(-3.5355339,-0.50507627)"
         id="g4229">
        <rect
           style="fill:#b3b3b3;fill-opacity:1;stroke:none"
           id="rect4227"
           width="8.0812206"
           height="83.842659"
           x="158.08888"
           y="599.30872" />
        <g
           transform="translate(-26.769043,-3.0304574)"
           id="g4217">
          <rect
             style="fill:#666666;fill-opacity:1;stroke:none"
             id="rect4219"
             width="28.571409"
             height="32.857262"
             x="175.71429"
             y="680.93359" />
          <g
             id="g4221"
             style="fill:#ff0000;fill-opacity:1;stroke:none"
             transform="translate(0.44642857,0.625)">
            <path
               style="font-size:medium;font-style:normal;font-variant:normal;font-weight:normal;font-stretch:normal;text-indent:0;text-align:start;text-decoration:none;line-height:normal;letter-spacing:normal;word-spacing:normal;text-transform:none;direction:ltr;block-progression:tb;writing-mode:lr-tb;text-anchor:start;baseline-shift:baseline;color:#000000;fill:#ff0000;fill-opacity:1;fill-rule:nonzero;stroke:none;stroke-width:1;marker:none;visibility:visible;display:inline;overflow:visible;enable-background:accumulate;font-family:Sans;-inkscape-font-specification:Sans"
               d="m 188.4375,687.09375 0.0937,19.02232 0.91071,0.11161 -0.004,-19.13393 z"
               id="path4223"
               inkscape:connector-curvature="0"
               sodipodi:nodetypes="ccccc" />
            <path
               style="fill:#ff0000;fill-opacity:1;fill-rule:evenodd;stroke:none;stroke-width:0.8pt;marker-start:none"
               d="m 188.97721,699.05869 -4.01623,-3.9837 4.05689,13.98362 3.94305,-14.01615 -3.98371,4.01623 z"
               id="path4225"
               inkscape:connector-curvature="0" />
          </g>
        </g>
      </g>
      <g
         id="g6280">
        <rect
           style="fill:#666666;fill-opacity:1;stroke:none"
           id="rect6231"
           width="46.42857"
           height="50.714287"
           x="136.42856"
           y="553.07648" />
        <path
           style="font-size:medium;font-style:normal;font-variant:normal;font-weight:normal;font-stretch:normal;text-indent:0;text-align:start;text-decoration:none;line-height:normal;letter-spacing:normal;word-spacing:normal;text-transform:none;direction:ltr;block-progression:tb;writing-mode:lr-tb;text-anchor:start;baseline-shift:baseline;color:#000000;fill:#999999;fill-opacity:1;stroke:none;stroke-width:1.60000002;marker:none;visibility:visible;display:inline;overflow:visible;enable-background:accumulate;font-family:Sans;-inkscape-font-specification:Sans"
           d="m 221.38838,560.18362 0.59375,1.46875 1.15625,-0.46875 c 0.76885,-0.19418 -0.0726,-1.12423 -0.28125,-1.625 z m -2.96875,1.25 0.625,1.46875 1.46875,-0.625 -0.625,-1.46875 z m -2.9375,1.21875 0.59375,1.46875 1.5,-0.59375 -0.625,-1.5 z m -2.96875,1.25 0.625,1.46875 1.46875,-0.625 -0.625,-1.46875 z m -2.9375,1.21875 0.59375,1.46875 1.5,-0.59375 -0.625,-1.5 z m -2.96875,1.25 0.625,1.46875 1.46875,-0.625 -0.625,-1.46875 z m -2.9375,1.2187 0.625,1.46875 1.46875,-0.59375 -0.625,-1.5 z m -2.96875,1.25 0.625,1.46875 1.46875,-0.625 -0.59375,-1.46875 z m -2.9375,1.21875 0.625,1.46875 1.46875,-0.59375 -0.625,-1.5 z m -2.96875,1.25 0.625,1.46875 1.46875,-0.625 -0.59375,-1.46875 z m -2.9375,1.21875 0.625,1.46875 1.46875,-0.59375 -0.625,-1.46875 z m -2.96875,1.25 0.625,1.46875 1.46875,-0.625 -0.59375,-1.46875 z m -2.9375,1.21875 0.625,1.5 1.46875,-0.625 -0.625,-1.46875 z m -2.9375,1.25 0.375,0.96875 -0.53125,1.125 1.4375,0.71875 0.6875,-1.4375 -0.53125,-0.25 0.65625,-0.28125 -0.625,-1.46875 z m 2.71875,3.5 1.4375,0.71875 0.6875,-1.4375 -1.4375,-0.71875 z m 2.875,1.40625 1.4375,0.71875 0.6875,-1.4375 -1.4375,-0.71875 z m 2.875,1.40625 1.4375,0.71875 0.6875,-1.4375 -1.4375,-0.71875 z m 2.875,1.40625 1.4375,0.71875 0.6875,-1.4375 -1.4375,-0.71875 z m 2.875,1.40625 1.4375,0.71875 0.6875,-1.4375 -1.4375,-0.71875 z m 2.875,1.40625 1.4375,0.71875 0.6875,-1.4375 -1.4375,-0.71875 z m 2.875,1.40625 1.4375,0.71875 0.6875,-1.4375 -1.4375,-0.71875 z m 2.875,1.4063 1.4375,0.71875 0.6875,-1.4375 -1.4375,-0.71875 z m 2.875,1.40625 1.4375,0.71875 0.6875,-1.4375 -1.4375,-0.71875 z m 2.875,1.40625 1.4375,0.71875 0.6875,-1.4375 -1.4375,-0.71875 z m 2.875,1.40625 1.4375,0.71875 0.6875,-1.4375 -1.4375,-0.71875 z m 2.875,1.40625 1.4375,0.71875 0.6875,-1.4375 -1.4375,-0.71875 z m 2.875,1.40625 1.4375,0.6875 0.6875,-1.4375 -1.4375,-0.6875 z"
           id="path6233"
           inkscape:connector-curvature="0"
           sodipodi:nodetypes="ccccccccccccccccccccccccccccccccccccccccccccccccccccccccccccccccccccccccccccccccccccccccccccccccccccccccccccccccccccccccccccccccccccccccccc" />
        <g
           id="g6253"
           transform="matrix(0.0399853,0,0,0.0399853,147.65525,567.96547)">
          <path
             id="path6255"
             d="M 597.5,499.6 313.7,8 c -2.9,-5 -8.2,-8 -13.9,-8 -5.7,0 -11,3.1 -13.9,8 L 2.1,499.6 c -2.9,5 -2.9,11.1 0,16 2.9,5 8.2,8 13.9,8 h 567.6 c 5.7,0 11,-3.1 13.9,-8 2.9,-5 2.9,-11.1 0,-16 z"
             inkscape:connector-curvature="0" />
          <polygon
             id="polygon6257"
             points="43.8,491.5 299.8,48.2 555.8,491.5 "
             style="fill:#ffff00" />
          <path
             id="path6259"
             d="M 279.8,378.3 233,459.4 c 42.6,24.6 91.1,24.6 133.7,0 l -46.8,-81.1 c -0.3,0.2 -0.6,0.4 -0.9,0.6 -1.1,0.6 -2.3,1.2 -3.5,1.7 -1.2,0.5 -2.4,1 -3.7,1.4 -1.3,0.4 -2.5,0.7 -3.8,1 -1.3,0.3 -2.6,0.5 -4,0.6 -1.3,0.1 -2.7,0.2 -4.1,0.2 -1.4,0 -2.7,-0.1 -4.1,-0.2 -1.3,-0.1 -2.7,-0.3 -4,-0.6 -1.3,-0.3 -2.6,-0.6 -3.8,-1 -1.3,-0.4 -2.5,-0.8 -3.7,-1.4 -1.2,-0.5 -2.4,-1.1 -3.5,-1.7 -0.4,-0.2 -0.7,-0.4 -1,-0.6 z"
             inkscape:connector-curvature="0" />
          <path
             id="path6261"
             d="m 233,227.8 c -42.6,24.6 -66.8,66.6 -66.8,115.8 h 93.6 c 0,-1.4 0.1,-2.8 0.2,-4.1 0.1,-1.3 0.4,-2.7 0.6,-4 0.3,-1.3 0.6,-2.6 1,-3.8 0.4,-1.3 0.8,-2.5 1.4,-3.7 0.5,-1.2 1.1,-2.4 1.7,-3.5 0.6,-1.1 1.3,-2.2 2,-3.3 0.7,-1.1 1.5,-2.1 2.3,-3.1 0.8,-1 1.7,-1.9 2.6,-2.8 0.9,-0.9 1.9,-1.8 2.9,-2.6 1,-0.8 2,-1.6 3.1,-2.3 0.8,-0.5 1.6,-1 2.4,-1.5 l -47,-81.1 z"
             inkscape:connector-curvature="0" />
          <path
             id="path6263"
             d="m 366.7,227.8 -46.8,81.1 c 0.8,0.5 1.6,0.9 2.4,1.5 1.1,0.7 2.1,1.5 3.1,2.3 1,0.8 1.9,1.7 2.9,2.6 0.9,0.9 1.8,1.9 2.6,2.8 0.8,1 1.6,2 2.3,3.1 0.7,1.1 1.4,2.2 2,3.3 0.6,1.1 1.2,2.3 1.7,3.5 0.5,1.2 1,2.4 1.4,3.7 0.4,1.3 0.7,2.5 1,3.8 0.3,1.3 0.5,2.6 0.6,4 0.1,1.3 0.2,2.7 0.2,4.1 h 93.6 c -0.2,-49.2 -24.4,-91.2 -67,-115.8 z"
             inkscape:connector-curvature="0" />
          <circle
             id="circle6265"
             r="26.700001"
             cy="343.60001"
             cx="299.79999"
             sodipodi:cx="299.79999"
             sodipodi:cy="343.60001"
             sodipodi:rx="26.700001"
             sodipodi:ry="26.700001"
             d="m 326.49999,343.60001 c 0,14.746 -11.954,26.7 -26.7,26.7 -14.74601,0 -26.7,-11.954 -26.7,-26.7 0,-14.74601 11.95399,-26.7 26.7,-26.7 14.746,0 26.7,11.95399 26.7,26.7 z" />
        </g>
      </g>
    </g>
  </g>
</svg>
